<?xml version="1.0" standalone="no"?><!DOCTYPE svg PUBLIC "-//W3C//DTD SVG 1.1//EN" "http://www.w3.org/Graphics/SVG/1.1/DTD/svg11.dtd"><svg class="icon" width="200px" height="200.00px" viewBox="0 0 1024 1024" version="1.1" xmlns="http://www.w3.org/2000/svg"><path fill="#096c0f" d="M512 0C229.236364 0 0 229.236364 0 512s229.236364 512 512 512 512-229.236364 512-512S794.763636 0 512 0z m203.333818 664.552727a35.886545 35.886545 0 1 1-50.781091 50.757818l-152.296727-152.296727-152.296727 152.296727a35.909818 35.909818 0 0 1-50.781091-50.734545l152.32-152.343273-152.32-152.296727a35.909818 35.909818 0 0 1 50.781091-50.757818l152.296727 152.296727 152.296727-152.296727a35.909818 35.909818 0 0 1 50.781091 50.781091l-152.32 152.273454 152.296727 152.32z"  /></svg>