<?xml version="1.0" standalone="no"?><!DOCTYPE svg PUBLIC "-//W3C//DTD SVG 1.1//EN" "http://www.w3.org/Graphics/SVG/1.1/DTD/svg11.dtd"><svg class="icon" width="200px" height="200.00px" viewBox="0 0 1024 1024" version="1.1" xmlns="http://www.w3.org/2000/svg"><path d="M512 1024C229.23264 1024 0 794.76736 0 512S229.23264 0 512 0s512 229.23264 512 512-229.23264 512-512 512z m0-950.86592C269.6192 73.13408 73.13408 269.6192 73.13408 512c0 242.3808 196.48512 438.86592 438.86592 438.86592 242.3808 0 438.86592-196.48512 438.86592-438.86592 0-242.3808-196.48512-438.86592-438.86592-438.86592z" fill="#EB3C3C" /><path d="M350.72 709.8368a36.57728 36.57728 0 0 1-25.96864-62.52544l310.4768-310.12864a36.57728 36.57728 0 1 1 51.58912 51.56864l-310.12864 310.4768c-6.90176 6.8608-16.24064 10.67008-25.96864 10.62912z" fill="#EB3C3C" /><path d="M661.21728 709.8368a36.57728 36.57728 0 0 1-25.96864-10.58816l-310.4768-310.4768a36.57728 36.57728 0 1 1 51.9168-51.58912l310.12864 310.12864a36.57728 36.57728 0 0 1-25.6 62.54592z" fill="#EB3C3C" /></svg>